<?xml version="1.0" encoding="UTF-8"?>
<svg width="209px" height="44px" viewBox="0 0 209 44" version="1.1" xmlns="http://www.w3.org/2000/svg" xmlns:xlink="http://www.w3.org/1999/xlink">
    <!-- Generator: Sketch 50.2 (55047) - http://www.bohemiancoding.com/sketch -->
    <title>Group</title>
    <desc>Created with Sketch.</desc>
    <defs></defs>
    <g id="Page-1" stroke="none" stroke-width="1" fill="none" fill-rule="evenodd">
        <g id="Artboard" transform="translate(-1035.000000, -726.000000)">
            <g id="Group" transform="translate(1037.000000, 728.000000)">
                <path d="M20,40 C8.954305,40 0,31.045695 0,20 C0,8.954305 8.954305,0 20,0 C31.045695,0 40,8.954305 40,20 C40,31.045695 31.045695,40 20,40 Z M20,30 C25.5228475,30 30,25.5228475 30,20 C30,14.4771525 25.5228475,10 20,10 C14.4771525,10 10,14.4771525 10,20 C10,25.5228475 14.4771525,30 20,30 Z" id="Oval" fill="#FF8D29" fill-rule="nonzero"></path>
                <path d="M20,38 C29.9411255,38 38,29.9411255 38,20 C38,10.0588745 29.9411255,2 20,2 C10.0588745,2 2,10.0588745 2,20 C2,29.9411255 10.0588745,38 20,38 Z M20,42 C7.8497355,42 -2,32.1502645 -2,20 C-2,7.8497355 7.8497355,-2 20,-2 C32.1502645,-2 42,7.8497355 42,20 C42,32.1502645 32.1502645,42 20,42 Z M20,32 C13.372583,32 8,26.627417 8,20 C8,13.372583 13.372583,8 20,8 C26.627417,8 32,13.372583 32,20 C32,26.627417 26.627417,32 20,32 Z M20,28 C24.418278,28 28,24.418278 28,20 C28,15.581722 24.418278,12 20,12 C15.581722,12 12,15.581722 12,20 C12,24.418278 15.581722,28 20,28 Z" id="Oval-Copy" fill="#FF8D29" fill-rule="nonzero"></path>
                <path d="M11.5536565,1.86708668 L15.7805078,10.9298527 C13.7429863,11.8801476 12.0717195,13.5029198 11.0602599,15.5115429 L2.128738,11.0139973 C4.15040271,6.99924251 7.47847232,3.76774232 11.5536565,1.86708668 Z M1.88952643,28.4942901 L10.9410319,24.2433786 C11.9202936,26.3285297 13.6036223,28.0258699 15.6805646,29.0228547 L11.3530686,38.0379963 C7.20010496,36.0444688 3.84797836,32.6644401 1.88952643,28.4942901 Z M28.7605263,37.9830248 L24.3760494,28.9954578 C26.4216086,27.9975562 28.0795731,26.3185416 29.0508867,24.2605436 L38.0942532,28.5287426 C36.151768,32.6444377 32.8501943,35.9879293 28.7605263,37.9830248 Z M38.2412549,11.7899633 L29.1241093,15.8982057 C28.1784159,13.799492 26.5228147,12.0773677 24.4630981,11.0475354 L28.9351434,2.10321825 C33.052253,4.1617209 36.3492747,7.591219 38.2412549,11.7899633 Z" id="Oval" fill="#FFFFFF" fill-rule="nonzero"></path>
                <path d="M52.492,31 L52.492,11.12 L54.452,11.12 L54.452,29.264 L65.932,29.264 L65.932,31 L52.492,31 Z M66.868444,31 L66.868444,16.412 L68.772444,16.412 L68.772444,31 L66.868444,31 Z M66.868444,13.36 L66.868444,10.56 L68.772444,10.56 L68.772444,13.36 L66.868444,13.36 Z M72.116888,31 L72.116888,17.924 L70.100888,17.924 L70.100888,16.412 L72.116888,16.412 L72.116888,16.02 C72.116888,14.227991 72.4995508,12.8233384 73.264888,11.806 C74.0302252,10.7886616 75.075548,10.28 76.400888,10.28 C76.9795576,10.28 77.539552,10.3639992 78.080888,10.532 C78.622224,10.7000008 79.088886,10.9239986 79.480888,11.204 L78.892888,12.576 C78.6315534,12.3706656 78.3095566,12.2120006 77.926888,12.1 C77.5442194,11.9879994 77.15689,11.932 76.764888,11.932 C75.8688835,11.932 75.187557,12.2773299 74.720888,12.968 C74.254219,13.6586701 74.020888,14.6573268 74.020888,15.964 L74.020888,16.412 L78.052888,16.412 L78.052888,17.924 L74.020888,17.924 L74.020888,31 L72.116888,31 Z M84.673332,31.28 C83.6093267,31.28 82.6340031,31.0793353 81.747332,30.678 C80.8606609,30.2766647 80.0906686,29.7260035 79.437332,29.026 C78.7839954,28.3259965 78.2753338,27.5186712 77.911332,26.604 C77.5473302,25.6893288 77.365332,24.7093386 77.365332,23.664 C77.365332,22.6373282 77.5473302,21.6713379 77.911332,20.766 C78.2753338,19.8606621 78.7793288,19.0673367 79.423332,18.386 C80.0673352,17.7046633 80.8373275,17.1633353 81.733332,16.762 C82.6293365,16.3606647 83.5999934,16.16 84.645332,16.16 C85.7093373,16.16 86.6846609,16.3606647 87.571332,16.762 C88.4580031,17.1633353 89.2186622,17.7093299 89.853332,18.4 C90.4880018,19.0906701 90.9826636,19.8839955 91.337332,20.78 C91.6920004,21.6760045 91.869332,22.627995 91.869332,23.636 L91.869332,24.084 C91.869332,24.2333341 91.8599988,24.3359997 91.841332,24.392 L79.353332,24.392 C79.4093323,25.1760039 79.5913305,25.89933 79.899332,26.562 C80.2073335,27.22467 80.6039962,27.7986642 81.089332,28.284 C81.5746678,28.7693358 82.1299955,29.147332 82.755332,29.418 C83.3806685,29.688668 84.0479951,29.824 84.757332,29.824 C85.224001,29.824 85.690663,29.7586673 86.157332,29.628 C86.624001,29.4973327 87.05333,29.3200011 87.445332,29.096 C87.837334,28.8719989 88.1919971,28.5966683 88.509332,28.27 C88.8266669,27.9433317 89.0693312,27.584002 89.237332,27.192 L90.889332,27.64 C90.6653309,28.181336 90.3480007,28.6713311 89.937332,29.11 C89.5266633,29.5486689 89.050668,29.9313317 88.509332,30.258 C87.967996,30.5846683 87.3706686,30.8366658 86.717332,31.014 C86.0639954,31.1913342 85.3826689,31.28 84.673332,31.28 Z M90.049332,22.936 C89.9933317,22.1519961 89.8113335,21.4380032 89.503332,20.794 C89.1953305,20.1499968 88.8033344,19.594669 88.327332,19.128 C87.8513296,18.661331 87.3006685,18.2973346 86.675332,18.036 C86.0499955,17.7746654 85.3826689,17.644 84.673332,17.644 C83.9639951,17.644 83.2920018,17.7746654 82.657332,18.036 C82.0226622,18.2973346 81.4673344,18.661331 80.991332,19.128 C80.5153296,19.594669 80.1326668,20.1546634 79.843332,20.808 C79.5539972,21.4613366 79.3813323,22.1706628 79.325332,22.936 L90.049332,22.936 Z M93.225776,31 L93.225776,11.12 L101.653776,11.12 C102.568447,11.12 103.413105,11.3113314 104.187776,11.694 C104.962447,12.0766686 105.629773,12.5806635 106.189776,13.206 C106.749779,13.8313365 107.188441,14.5406627 107.505776,15.334 C107.823111,16.1273373 107.981776,16.9253293 107.981776,17.728 C107.981776,18.5680042 107.832444,19.3846627 107.533776,20.178 C107.235108,20.9713373 106.815112,21.6759969 106.273776,22.292 C105.73244,22.9080031 105.079113,23.4026648 104.313776,23.776 C103.548439,24.1493352 102.708447,24.336 101.793776,24.336 L97.089776,24.336 L97.089776,31 L93.225776,31 Z M97.089776,20.948 L101.569776,20.948 C102.279113,20.948 102.871774,20.6586696 103.347776,20.08 C103.823778,19.5013304 104.061776,18.7173383 104.061776,17.728 C104.061776,17.2239975 103.98711,16.7713353 103.837776,16.37 C103.688442,15.9686647 103.492444,15.6280014 103.249776,15.348 C103.007108,15.0679986 102.722444,14.8580007 102.395776,14.718 C102.069108,14.5779993 101.737778,14.508 101.401776,14.508 L97.089776,14.508 L97.089776,20.948 Z M117.48622,19.576 C116.347548,19.5946668 115.330224,19.8139979 114.43422,20.234 C113.538216,20.6540021 112.894222,21.2839958 112.50222,22.124 L112.50222,31 L108.75022,31 L108.75022,16.328 L112.19422,16.328 L112.19422,19.464 C112.455555,18.9599975 112.763552,18.5073353 113.11822,18.106 C113.472888,17.7046647 113.855551,17.3546682 114.26622,17.056 C114.676889,16.7573318 115.092218,16.5286675 115.51222,16.37 C115.932222,16.2113325 116.338218,16.132 116.73022,16.132 L117.19222,16.132 C117.294887,16.132 117.392886,16.1413332 117.48622,16.16 L117.48622,19.576 Z M124.106664,31.28 C122.930658,31.28 121.866669,31.0793353 120.914664,30.678 C119.962659,30.2766647 119.150667,29.7306701 118.478664,29.04 C117.806661,28.3493299 117.288666,27.5466712 116.924664,26.632 C116.560662,25.7173288 116.378664,24.756005 116.378664,23.748 C116.378664,22.7026614 116.555996,21.7180046 116.910664,20.794 C117.265332,19.8699954 117.778661,19.0580035 118.450664,18.358 C119.122667,17.6579965 119.939326,17.1026687 120.900664,16.692 C121.862002,16.2813313 122.939991,16.076 124.134664,16.076 C125.329337,16.076 126.397993,16.2813313 127.340664,16.692 C128.283335,17.1026687 129.085994,17.6533299 129.748664,18.344 C130.411334,19.0346701 130.915329,19.8373288 131.260664,20.752 C131.605999,21.6666712 131.778664,22.6186617 131.778664,23.608 C131.778664,23.8506679 131.773997,24.0839989 131.764664,24.308 C131.755331,24.5320011 131.731998,24.7186659 131.694664,24.868 L120.354664,24.868 C120.410664,25.4466696 120.550663,25.9599978 120.774664,26.408 C120.998665,26.8560022 121.287996,27.2386651 121.642664,27.556 C121.997332,27.8733349 122.398662,28.1159992 122.846664,28.284 C123.294666,28.4520008 123.761328,28.536 124.246664,28.536 C124.993334,28.536 125.697994,28.3540018 126.360664,27.99 C127.023334,27.6259982 127.475996,27.1453363 127.718664,26.548 L130.938664,27.444 C130.397328,28.5640056 129.534003,29.4833297 128.348664,30.202 C127.163325,30.9206703 125.749339,31.28 124.106664,31.28 Z M127.914664,22.432 C127.82133,21.3306612 127.415334,20.44867 126.696664,19.786 C125.977994,19.12333 125.105336,18.792 124.078664,18.792 C123.574661,18.792 123.103333,18.8806658 122.664664,19.058 C122.225995,19.2353342 121.838666,19.4826651 121.502664,19.8 C121.166662,20.1173349 120.891332,20.4999978 120.676664,20.948 C120.461996,21.3960022 120.335998,21.890664 120.298664,22.432 L127.914664,22.432 Z M138.063108,31.28 C136.831102,31.28 135.627114,31.084002 134.451108,30.692 C133.275102,30.299998 132.267112,29.7400036 131.427108,29.012 L132.827108,26.66 C133.723112,27.2946698 134.59577,27.7753317 135.445108,28.102 C136.294446,28.4286683 137.139104,28.592 137.979108,28.592 C138.725778,28.592 139.313773,28.4520014 139.743108,28.172 C140.172443,27.8919986 140.387108,27.4906693 140.387108,26.968 C140.387108,26.4453307 140.135111,26.0626679 139.631108,25.82 C139.127105,25.5773321 138.30578,25.2973349 137.167108,24.98 C136.215103,24.7186654 135.403111,24.4666679 134.731108,24.224 C134.059105,23.9813321 133.517777,23.7060015 133.107108,23.398 C132.696439,23.0899985 132.397776,22.7353353 132.211108,22.334 C132.02444,21.9326647 131.931108,21.4520028 131.931108,20.892 C131.931108,20.1453296 132.075773,19.4733363 132.365108,18.876 C132.654443,18.2786637 133.060439,17.7700021 133.583108,17.35 C134.105777,16.9299979 134.717105,16.6080011 135.417108,16.384 C136.117111,16.1599989 136.877771,16.048 137.699108,16.048 C138.800447,16.048 139.83177,16.2066651 140.793108,16.524 C141.754446,16.8413349 142.636437,17.3546631 143.439108,18.064 L141.927108,20.332 C141.180438,19.7719972 140.457112,19.3613346 139.757108,19.1 C139.057104,18.8386654 138.361778,18.708 137.671108,18.708 C137.036438,18.708 136.504443,18.8386654 136.075108,19.1 C135.645773,19.3613346 135.431108,19.7813304 135.431108,20.36 C135.431108,20.6213346 135.482441,20.8359992 135.585108,21.004 C135.687775,21.1720008 135.851107,21.3213327 136.075108,21.452 C136.299109,21.5826673 136.593106,21.7086661 136.957108,21.83 C137.32111,21.9513339 137.773772,22.0773327 138.315108,22.208 C139.323113,22.4693346 140.186438,22.7306654 140.905108,22.992 C141.623778,23.2533346 142.211772,23.5519983 142.669108,23.888 C143.126444,24.2240017 143.46244,24.6113311 143.677108,25.05 C143.891776,25.4886689 143.999108,26.0159969 143.999108,26.632 C143.999108,28.0693405 143.467113,29.2033292 142.403108,30.034 C141.339103,30.8646708 139.89245,31.28 138.063108,31.28 Z M151.683552,31.28 C150.507546,31.28 149.443557,31.0793353 148.491552,30.678 C147.539547,30.2766647 146.727555,29.7306701 146.055552,29.04 C145.383549,28.3493299 144.865554,27.5466712 144.501552,26.632 C144.13755,25.7173288 143.955552,24.756005 143.955552,23.748 C143.955552,22.7026614 144.132884,21.7180046 144.487552,20.794 C144.84222,19.8699954 145.355549,19.0580035 146.027552,18.358 C146.699555,17.6579965 147.516214,17.1026687 148.477552,16.692 C149.43889,16.2813313 150.516879,16.076 151.711552,16.076 C152.906225,16.076 153.974881,16.2813313 154.917552,16.692 C155.860223,17.1026687 156.662882,17.6533299 157.325552,18.344 C157.988222,19.0346701 158.492217,19.8373288 158.837552,20.752 C159.182887,21.6666712 159.355552,22.6186617 159.355552,23.608 C159.355552,23.8506679 159.350885,24.0839989 159.341552,24.308 C159.332219,24.5320011 159.308886,24.7186659 159.271552,24.868 L147.931552,24.868 C147.987552,25.4466696 148.127551,25.9599978 148.351552,26.408 C148.575553,26.8560022 148.864884,27.2386651 149.219552,27.556 C149.57422,27.8733349 149.97555,28.1159992 150.423552,28.284 C150.871554,28.4520008 151.338216,28.536 151.823552,28.536 C152.570222,28.536 153.274882,28.3540018 153.937552,27.99 C154.600222,27.6259982 155.052884,27.1453363 155.295552,26.548 L158.515552,27.444 C157.974216,28.5640056 157.110891,29.4833297 155.925552,30.202 C154.740213,30.9206703 153.326227,31.28 151.683552,31.28 Z M155.491552,22.432 C155.398218,21.3306612 154.992222,20.44867 154.273552,19.786 C153.554882,19.12333 152.682224,18.792 151.655552,18.792 C151.151549,18.792 150.680221,18.8806658 150.241552,19.058 C149.802883,19.2353342 149.415554,19.4826651 149.079552,19.8 C148.74355,20.1173349 148.46822,20.4999978 148.253552,20.948 C148.038884,21.3960022 147.912886,21.890664 147.875552,22.432 L155.491552,22.432 Z M168.831996,19.576 C167.693324,19.5946668 166.676,19.8139979 165.779996,20.234 C164.883992,20.6540021 164.239998,21.2839958 163.847996,22.124 L163.847996,31 L160.095996,31 L160.095996,16.328 L163.539996,16.328 L163.539996,19.464 C163.801331,18.9599975 164.109328,18.5073353 164.463996,18.106 C164.818664,17.7046647 165.201327,17.3546682 165.611996,17.056 C166.022665,16.7573318 166.437994,16.5286675 166.857996,16.37 C167.277998,16.2113325 167.683994,16.132 168.075996,16.132 L168.537996,16.132 C168.640663,16.132 168.738662,16.1413332 168.831996,16.16 L168.831996,19.576 Z M173.32444,31 L167.92044,16.328 L171.78444,16.328 L175.50844,27.948 L179.26044,16.328 L182.78844,16.328 L177.38444,31 L173.32444,31 Z M189.492884,31.28 C188.316878,31.28 187.252889,31.0793353 186.300884,30.678 C185.348879,30.2766647 184.536887,29.7306701 183.864884,29.04 C183.192881,28.3493299 182.674886,27.5466712 182.310884,26.632 C181.946882,25.7173288 181.764884,24.756005 181.764884,23.748 C181.764884,22.7026614 181.942216,21.7180046 182.296884,20.794 C182.651552,19.8699954 183.164881,19.0580035 183.836884,18.358 C184.508887,17.6579965 185.325546,17.1026687 186.286884,16.692 C187.248222,16.2813313 188.326211,16.076 189.520884,16.076 C190.715557,16.076 191.784213,16.2813313 192.726884,16.692 C193.669555,17.1026687 194.472214,17.6533299 195.134884,18.344 C195.797554,19.0346701 196.301549,19.8373288 196.646884,20.752 C196.992219,21.6666712 197.164884,22.6186617 197.164884,23.608 C197.164884,23.8506679 197.160217,24.0839989 197.150884,24.308 C197.141551,24.5320011 197.118218,24.7186659 197.080884,24.868 L185.740884,24.868 C185.796884,25.4466696 185.936883,25.9599978 186.160884,26.408 C186.384885,26.8560022 186.674216,27.2386651 187.028884,27.556 C187.383552,27.8733349 187.784882,28.1159992 188.232884,28.284 C188.680886,28.4520008 189.147548,28.536 189.632884,28.536 C190.379554,28.536 191.084214,28.3540018 191.746884,27.99 C192.409554,27.6259982 192.862216,27.1453363 193.104884,26.548 L196.324884,27.444 C195.783548,28.5640056 194.920223,29.4833297 193.734884,30.202 C192.549545,30.9206703 191.135559,31.28 189.492884,31.28 Z M193.300884,22.432 C193.20755,21.3306612 192.801554,20.44867 192.082884,19.786 C191.364214,19.12333 190.491556,18.792 189.464884,18.792 C188.960881,18.792 188.489553,18.8806658 188.050884,19.058 C187.612215,19.2353342 187.224886,19.4826651 186.888884,19.8 C186.552882,20.1173349 186.277552,20.4999978 186.062884,20.948 C185.848216,21.3960022 185.722218,21.890664 185.684884,22.432 L193.300884,22.432 Z M206.641328,19.576 C205.502656,19.5946668 204.485332,19.8139979 203.589328,20.234 C202.693324,20.6540021 202.04933,21.2839958 201.657328,22.124 L201.657328,31 L197.905328,31 L197.905328,16.328 L201.349328,16.328 L201.349328,19.464 C201.610663,18.9599975 201.91866,18.5073353 202.273328,18.106 C202.627996,17.7046647 203.010659,17.3546682 203.421328,17.056 C203.831997,16.7573318 204.247326,16.5286675 204.667328,16.37 C205.08733,16.2113325 205.493326,16.132 205.885328,16.132 L206.347328,16.132 C206.449995,16.132 206.547994,16.1413332 206.641328,16.16 L206.641328,19.576 Z" id="LifePreserver" fill="#FF8D29"></path>
            </g>
        </g>
    </g>
</svg>